name C:\Users\u0150099\Documents\master_thesis\3dpredictsim\Results\debug\Fal_s1_mtjc2_sc_cspx10_oy2_ATx70_MTc2_MTPm_k1_d01_MTJm_nl_MG_exp5_table_d01_PF_Gefen2002_xv2_ls146_ig21_wAk5e+04_wa2e+03_wpM1e+03.mot
datacolumns 128
datarows 4
range 1.17536110 1.21062193
endheader
time	pelvis_tilt	pelvis_list	pelvis_rotation	pelvis_tx	pelvis_ty	pelvis_tz	hip_flexion_l	hip_adduction_l	hip_rotation_l	hip_flexion_r	hip_adduction_r	hip_rotation_r	knee_angle_l	knee_angle_r	ankle_angle_l	ankle_angle_r	subtalar_angle_l	subtalar_angle_r	mtj_angle_l	mtj_angle_r	mtp_angle_l	mtp_angle_r	lumbar_extension	lumbar_bending	lumbar_rotation	arm_flex_l	arm_add_l	arm_rot_l	arm_flex_r	arm_add_r	arm_rot_r	elbow_flex_l	elbow_flex_r	pro_sup_l	pro_sup_r	glut_med1_l/activation	glut_med2_l/activation	glut_med3_l/activation	glut_min1_l/activation	glut_min2_l/activation	glut_min3_l/activation	semimem_l/activation	semiten_l/activation	bifemlh_l/activation	bifemsh_l/activation	sar_l/activation	add_long_l/activation	add_brev_l/activation	add_mag1_l/activation	add_mag2_l/activation	add_mag3_l/activation	tfl_l/activation	pect_l/activation	grac_l/activation	glut_max1_l/activation	glut_max2_l/activation	glut_max3_l/activation	iliacus_l/activation	psoas_l/activation	quad_fem_l/activation	gem_l/activation	peri_l/activation	rect_fem_l/activation	vas_med_l/activation	vas_int_l/activation	vas_lat_l/activation	med_gas_l/activation	lat_gas_l/activation	soleus_l/activation	tib_post_l/activation	flex_dig_l/activation	flex_hal_l/activation	tib_ant_l/activation	per_brev_l/activation	per_long_l/activation	per_tert_l/activation	ext_dig_l/activation	ext_hal_l/activation	ercspn_l/activation	intobl_l/activation	extobl_l/activation	glut_med1_r/activation	glut_med2_r/activation	glut_med3_r/activation	glut_min1_r/activation	glut_min2_r/activation	glut_min3_r/activation	semimem_r/activation	semiten_r/activation	bifemlh_r/activation	bifemsh_r/activation	sar_r/activation	add_long_r/activation	add_brev_r/activation	add_mag1_r/activation	add_mag2_r/activation	add_mag3_r/activation	tfl_r/activation	pect_r/activation	grac_r/activation	glut_max1_r/activation	glut_max2_r/activation	glut_max3_r/activation	iliacus_r/activation	psoas_r/activation	quad_fem_r/activation	gem_r/activation	peri_r/activation	rect_fem_r/activation	vas_med_r/activation	vas_int_r/activation	vas_lat_r/activation	med_gas_r/activation	lat_gas_r/activation	soleus_r/activation	tib_post_r/activation	flex_dig_r/activation	flex_hal_r/activation	tib_ant_r/activation	per_brev_r/activation	per_long_r/activation	per_tert_r/activation	ext_dig_r/activation	ext_hal_r/activation	ercspn_r/activation	intobl_r/activation	extobl_r/activation	
          1.17536110	         -2.84168085	         -0.55772333	          6.22708710	          1.56323026	          0.90241080	         -0.00500378	        -18.40902247	          1.24653630	         11.98679406	         30.57010731	          0.38518816	         -4.24416691	        -10.52503690	        -10.11173512	          6.87438871	          8.00778602	         11.36122549	          8.03426790	         -1.85653070	          5.63474966	         15.42779026	        -15.43476641	         -2.76965824	         -0.80478455	         -1.85143273	          4.14416987	        -13.99100312	         19.31649989	         -9.89945571	        -13.49966466	          4.70172683	         40.73296224	         27.14061905	         86.51662706	         86.51662706	          0.40120048	          0.05863247	          0.05000000	          0.56767356	          0.21215473	          0.07306003	          0.05000025	          0.05000002	          0.05000001	          0.07974790	          0.11836204	          0.05000003	          0.05000004	          0.05000005	          0.05000016	          0.05000010	          0.56739428	          0.05000030	          0.05000005	          0.05000017	          0.05000010	          0.05000009	          0.42003200	          0.69865060	          0.05000000	          0.05000004	          0.05000001	          0.38383294	          0.10850010	          0.11598603	          0.09179827	          0.37005686	          0.46251199	          0.27860744	          0.63376825	          0.67055768	          0.70452038	          0.05000000	          0.06339484	          0.32256348	          0.05000000	          0.05000000	          0.08784015	          0.05000000	          0.05000000	          0.10607983	          0.05000005	          0.05000008	          0.05000010	          0.05000023	          0.05000015	          0.05000010	          0.07985105	          0.07150809	          0.35039070	          0.07150803	          0.05000011	          0.16006389	          0.14339455	          0.12645004	          0.10848742	          0.06628637	          0.05000004	          0.06683612	          0.14157392	          0.05000025	          0.05000023	          0.05865003	          0.06552604	          0.06118787	          0.14938250	          0.08024147	          0.06138144	          0.05000001	          0.05000008	          0.05000007	          0.05000006	          0.05041870	          0.05128584	          0.05931410	          0.06317907	          0.54103548	          0.45104574	          0.38602787	          0.05979466	          0.05815298	          0.50835860	          0.52471511	          0.08418773	          0.05000000	          0.11894613	          0.15512875	
          1.18711471	         -2.85897139	         -0.66675949	          6.36094102	          1.58226815	          0.90184981	         -0.00458084	        -18.64553935	          0.86400978	         11.99047034	         30.02910304	          0.91695521	         -4.35286950	        -11.75167373	         -9.68250244	          5.32752148	          7.73415935	         12.06309499	          8.44695967	         -3.15394154	          5.64768779	         18.89747229	        -14.99390089	         -2.59837146	         -0.58115098	         -2.03340607	          3.63890020	        -13.93121428	         19.18772397	        -10.93020346	        -13.46700667	          4.44060788	         42.04465599	         27.03167764	         86.51662706	         86.51662706	          0.33548179	          0.05000010	          0.05000000	          0.47468573	          0.17740271	          0.06109245	          0.05000037	          0.05000003	          0.05000002	          0.06668479	          0.09897377	          0.05000000	          0.05000000	          0.05000001	          0.05000006	          0.05000008	          0.47445227	          0.05000003	          0.05000002	          0.05000025	          0.05000010	          0.05000006	          0.35122860	          0.69539083	          0.05000000	          0.05000003	          0.05000001	          0.36690362	          0.13848089	          0.14509795	          0.11851688	          0.30943964	          0.38675015	          0.23297011	          0.55612118	          0.74345519	          0.68551043	          0.05000000	          0.05979466	          0.31184348	          0.05000000	          0.05000000	          0.07345149	          0.05000000	          0.05883031	          0.13165417	          0.05979466	          0.05979464	          0.05000005	          0.05979465	          0.05979464	          0.05979442	          0.06677104	          0.05979471	          0.31684350	          0.05979467	          0.05000004	          0.13384477	          0.18120000	          0.11854394	          0.13047990	          0.08373754	          0.05979458	          0.05588884	          0.11838344	          0.05000074	          0.05000004	          0.06833248	          0.05479258	          0.05116502	          0.35136608	          0.13043033	          0.11170632	          0.05000000	          0.05000001	          0.05000001	          0.05000001	          0.05000000	          0.05000001	          0.05344413	          0.05283002	          0.49606209	          0.40881185	          0.38804603	          0.05000000	          0.13083416	          0.48036295	          0.59683043	          0.07039736	          0.05000000	          0.09946215	          0.12971786	
          1.19886832	         -2.87339128	         -0.78724841	          6.46453044	          1.60164507	          0.90129032	         -0.00411209	        -18.84560361	          0.46614055	         11.94254539	         29.48742849	          1.41532202	         -4.45022387	        -12.94651464	         -9.95026402	          3.41913746	          6.80620579	         12.80881349	          8.83405876	         -4.49148913	          5.91567791	         22.57685674	        -14.37483342	         -2.42149364	         -0.34486192	         -2.21005694	          3.05133481	        -13.88807868	         19.04107084	        -11.91455207	        -13.44970710	          4.42209389	         43.35809585	         26.77383812	         86.51662706	         86.51662706	          0.28052815	          0.05329567	          0.05979467	          0.39692977	          0.14834324	          0.05979467	          0.05000038	          0.05000004	          0.05000009	          0.05576148	          0.08276139	          0.12860883	          0.07290089	          0.08118554	          0.05979482	          0.05979473	          0.39676285	          0.05019600	          0.05000042	          0.05000123	          0.05006969	          0.05979463	          0.29369555	          0.62203244	          0.05979467	          0.05979468	          0.05979467	          0.34541615	          0.17389825	          0.18161422	          0.14566167	          0.25875183	          0.32339849	          0.19480840	          0.46502567	          0.82542238	          0.57322045	          0.05000000	          0.05000000	          0.28282277	          0.05000000	          0.05000000	          0.06141976	          0.05159312	          0.08556887	          0.11008854	          0.05000000	          0.05000000	          0.05000019	          0.05000000	          0.05000000	          0.05000000	          0.05583360	          0.05000003	          0.26494290	          0.05000000	          0.05002073	          0.11192033	          0.21492703	          0.29584305	          0.11475067	          0.07712487	          0.05000000	          0.07155512	          0.09899164	          0.05000003	          0.05979471	          0.15785130	          0.05000001	          0.05000009	          0.63632914	          0.31925917	          0.24282101	          0.07150821	          0.18146209	          0.19355862	          0.14078223	          0.05000000	          0.05000001	          0.05000000	          0.05000000	          0.53052158	          0.37205881	          0.51149631	          0.05979467	          0.10940286	          0.70865407	          0.63417140	          0.34107446	          0.05000000	          0.08316973	          0.10846941	
          1.21062193	         -2.88545285	         -0.96757093	          6.54291447	          1.62124346	          0.90079940	         -0.00367944	        -19.00020656	          0.01861514	         11.82970866	         28.88647515	          1.80650956	         -4.36996814	        -14.09522330	        -10.75100973	          1.11718913	          5.60149466	         13.54137640	          9.32053014	         -5.82944977	          6.24985255	         26.37281093	        -13.64806314	         -2.23990893	         -0.03934585	         -2.37426773	          2.40599388	        -13.83500320	         18.88921110	        -12.82227860	        -13.46413022	          4.63706430	         44.64861250	         26.32138115	         86.51662706	         86.51662706	          0.27766415	          0.05000000	          0.05000000	          0.33191067	          0.12404386	          0.05000003	          0.05000021	          0.05000004	          0.05000002	          0.05979467	          0.07054454	          0.14632164	          0.06095937	          0.06788696	          0.05000023	          0.05000008	          0.46264158	          0.07150799	          0.05000015	          0.05000011	          0.05000005	          0.05000005	          0.24785685	          0.66781829	          0.05000001	          0.05000005	          0.05000000	          0.28883521	          0.14541282	          0.15186488	          0.12180154	          0.21636695	          0.27042415	          0.16289778	          0.38885207	          0.83464548	          0.47932402	          0.10411988	          0.16426317	          0.27338482	          0.05000000	          0.05000000	          0.05135888	          0.08989096	          0.07155225	          0.09205547	          0.33857792	          0.38849754	          0.44392176	          0.21116899	          0.32002062	          0.32930712	          0.11902287	          0.19296028	          0.23965423	          0.10226777	          0.05979478	          0.09358721	          0.17972088	          0.24738244	          0.09595393	          0.17428250	          0.05000006	          0.05983409	          0.08277632	          0.25605473	          0.05000004	          0.13199445	          0.05979467	          0.05979467	          0.53209515	          0.26696288	          0.20304577	          0.05979480	          0.15173767	          0.16185272	          0.11772137	          0.05000000	          0.05000000	          0.05000000	          0.05979492	          0.73677659	          0.60535583	          0.55593369	          0.05000000	          0.15192613	          0.59713174	          0.72014289	          0.28520472	          0.05000000	          0.09893250	          0.09070156	
